<svg preserveAspectRatio="none" width="100%" height="100%" overflow="visible" style="display: block;" viewBox="0 0 24 24" fill="none" xmlns="http://www.w3.org/2000/svg">
<g id="apps">
<mask id="mask0_0_4" style="mask-type:alpha" maskUnits="userSpaceOnUse" x="0" y="0" width="24" height="24">
<rect id="Bounding box" width="24" height="24" fill="var(--fill-0, #D9D9D9)"/>
</mask>
<g mask="url(#mask0_0_4)">
<path id="apps_2" d="M4.85675 19.1432C4.54208 18.8286 4.38475 18.4475 4.38475 18C4.38475 17.5525 4.54208 17.1714 4.85675 16.8567C5.17142 16.5421 5.5525 16.3848 6 16.3848C6.4475 16.3848 6.82858 16.5421 7.14325 16.8567C7.45792 17.1714 7.61525 17.5525 7.61525 18C7.61525 18.4475 7.45792 18.8286 7.14325 19.1432C6.82858 19.4579 6.4475 19.6152 6 19.6152C5.5525 19.6152 5.17142 19.4579 4.85675 19.1432ZM10.8568 19.1432C10.5421 18.8286 10.3848 18.4475 10.3848 18C10.3848 17.5525 10.5421 17.1714 10.8568 16.8567C11.1714 16.5421 11.5525 16.3848 12 16.3848C12.4475 16.3848 12.8286 16.5421 13.1432 16.8567C13.4579 17.1714 13.6152 17.5525 13.6152 18C13.6152 18.4475 13.4579 18.8286 13.1432 19.1432C12.8286 19.4579 12.4475 19.6152 12 19.6152C11.5525 19.6152 11.1714 19.4579 10.8568 19.1432ZM16.8568 19.1432C16.5421 18.8286 16.3847 18.4475 16.3847 18C16.3847 17.5525 16.5421 17.1714 16.8568 16.8567C17.1714 16.5421 17.5525 16.3848 18 16.3848C18.4475 16.3848 18.8286 16.5421 19.1432 16.8567C19.4579 17.1714 19.6152 17.5525 19.6152 18C19.6152 18.4475 19.4579 18.8286 19.1432 19.1432C18.8286 19.4579 18.4475 19.6152 18 19.6152C17.5525 19.6152 17.1714 19.4579 16.8568 19.1432ZM4.85675 13.1433C4.54208 12.8286 4.38475 12.4475 4.38475 12C4.38475 11.5525 4.54208 11.1714 4.85675 10.8568C5.17142 10.5421 5.5525 10.3848 6 10.3848C6.4475 10.3848 6.82858 10.5421 7.14325 10.8568C7.45792 11.1714 7.61525 11.5525 7.61525 12C7.61525 12.4475 7.45792 12.8286 7.14325 13.1433C6.82858 13.4579 6.4475 13.6152 6 13.6152C5.5525 13.6152 5.17142 13.4579 4.85675 13.1433ZM10.8568 13.1433C10.5421 12.8286 10.3848 12.4475 10.3848 12C10.3848 11.5525 10.5421 11.1714 10.8568 10.8568C11.1714 10.5421 11.5525 10.3848 12 10.3848C12.4475 10.3848 12.8286 10.5421 13.1432 10.8568C13.4579 11.1714 13.6152 11.5525 13.6152 12C13.6152 12.4475 13.4579 12.8286 13.1432 13.1433C12.8286 13.4579 12.4475 13.6152 12 13.6152C11.5525 13.6152 11.1714 13.4579 10.8568 13.1433ZM16.8568 13.1433C16.5421 12.8286 16.3847 12.4475 16.3847 12C16.3847 11.5525 16.5421 11.1714 16.8568 10.8568C17.1714 10.5421 17.5525 10.3848 18 10.3848C18.4475 10.3848 18.8286 10.5421 19.1432 10.8568C19.4579 11.1714 19.6152 11.5525 19.6152 12C19.6152 12.4475 19.4579 12.8286 19.1432 13.1433C18.8286 13.4579 18.4475 13.6152 18 13.6152C17.5525 13.6152 17.1714 13.4579 16.8568 13.1433ZM4.85675 7.14325C4.54208 6.82858 4.38475 6.4475 4.38475 6C4.38475 5.5525 4.54208 5.17142 4.85675 4.85675C5.17142 4.54208 5.5525 4.38475 6 4.38475C6.4475 4.38475 6.82858 4.54208 7.14325 4.85675C7.45792 5.17142 7.61525 5.5525 7.61525 6C7.61525 6.4475 7.45792 6.82858 7.14325 7.14325C6.82858 7.45792 6.4475 7.61525 6 7.61525C5.5525 7.61525 5.17142 7.45792 4.85675 7.14325ZM10.8568 7.14325C10.5421 6.82858 10.3848 6.4475 10.3848 6C10.3848 5.5525 10.5421 5.17142 10.8568 4.85675C11.1714 4.54208 11.5525 4.38475 12 4.38475C12.4475 4.38475 12.8286 4.54208 13.1432 4.85675C13.4579 5.17142 13.6152 5.5525 13.6152 6C13.6152 6.4475 13.4579 6.82858 13.1432 7.14325C12.8286 7.45792 12.4475 7.61525 12 7.61525C11.5525 7.61525 11.1714 7.45792 10.8568 7.14325ZM16.8568 7.14325C16.5421 6.82858 16.3847 6.4475 16.3847 6C16.3847 5.5525 16.5421 5.17142 16.8568 4.85675C17.1714 4.54208 17.5525 4.38475 18 4.38475C18.4475 4.38475 18.8286 4.54208 19.1432 4.85675C19.4579 5.17142 19.6152 5.5525 19.6152 6C19.6152 6.4475 19.4579 6.82858 19.1432 7.14325C18.8286 7.45792 18.4475 7.61525 18 7.61525C17.5525 7.61525 17.1714 7.45792 16.8568 7.14325Z" fill="var(--fill-0, #1C1B1F)"/>
</g>
</g>
</svg>
