<svg preserveAspectRatio="none" width="100%" height="100%" overflow="visible" style="display: block;" viewBox="0 0 24 24" fill="none" xmlns="http://www.w3.org/2000/svg">
<g id="avg_pace">
<mask id="mask0_0_5" style="mask-type:alpha" maskUnits="userSpaceOnUse" x="0" y="0" width="24" height="24">
<rect id="Bounding box" x="8.62885e-06" width="24" height="24" fill="var(--fill-0, #D9D9D9)"/>
</mask>
<g mask="url(#mask0_0_5)">
<path id="avg_pace_2" d="M14.3818 4.75295C14.1849 4.55611 14.0865 4.3147 14.0865 4.0287C14.0865 3.74286 14.1849 3.50153 14.3818 3.3047C14.5786 3.10803 14.8199 3.0097 15.1058 3.0097C15.3916 3.0097 15.6329 3.10803 15.8298 3.3047C16.0266 3.50153 16.125 3.74286 16.125 4.0287C16.125 4.3147 16.0266 4.55611 15.8298 4.75295C15.6329 4.94961 15.3916 5.04795 15.1058 5.04795C14.8199 5.04795 14.5786 4.94961 14.3818 4.75295ZM14.353 20.6952C14.1562 20.4984 14.0578 20.257 14.0578 19.9712C14.0578 19.6852 14.1562 19.4438 14.353 19.2469C14.5497 19.0503 14.791 18.9519 15.077 18.9519C15.3628 18.9519 15.6042 19.0503 15.801 19.2469C15.9977 19.4438 16.096 19.6852 16.096 19.9712C16.096 20.257 15.9977 20.4984 15.801 20.6952C15.6042 20.8919 15.3628 20.9902 15.077 20.9902C14.791 20.9902 14.5497 20.8919 14.353 20.6952ZM18.353 8.13745C18.1562 7.94061 18.0578 7.69928 18.0578 7.41345C18.0578 7.12761 18.1562 6.88628 18.353 6.68945C18.5497 6.49261 18.791 6.3942 19.077 6.3942C19.3628 6.3942 19.6042 6.49261 19.801 6.68945C19.9977 6.88628 20.096 7.12761 20.096 7.41345C20.096 7.69928 19.9977 7.94061 19.801 8.13745C19.6042 8.33428 19.3628 8.4327 19.077 8.4327C18.791 8.4327 18.5497 8.33428 18.353 8.13745ZM18.324 17.3394C18.1272 17.1426 18.0288 16.9012 18.0288 16.6152C18.0288 16.3294 18.1272 16.088 18.324 15.8912C18.5208 15.6945 18.7622 15.5962 19.048 15.5962C19.334 15.5962 19.5753 15.6945 19.772 15.8912C19.9688 16.088 20.0673 16.3294 20.0673 16.6152C20.0673 16.9012 19.9688 17.1426 19.772 17.3394C19.5753 17.5361 19.334 17.6344 19.048 17.6344C18.7622 17.6344 18.5208 17.5361 18.324 17.3394ZM19.7568 12.7239C19.5599 12.5271 19.4615 12.2858 19.4615 11.9999C19.4615 11.7141 19.5599 11.4728 19.7568 11.2759C19.9536 11.0791 20.1949 10.9807 20.4808 10.9807C20.7666 10.9807 21.0079 11.0791 21.2048 11.2759C21.4016 11.4728 21.5 11.7141 21.5 11.9999C21.5 12.2858 21.4016 12.5271 21.2048 12.7239C21.0079 12.9208 20.7666 13.0192 20.4808 13.0192C20.1949 13.0192 19.9536 12.9208 19.7568 12.7239ZM5.03076 5.5337C6.71793 3.73053 8.78651 2.72953 11.2365 2.5307C11.4455 2.5102 11.625 2.57178 11.775 2.71545C11.925 2.85895 12 3.03711 12 3.24995C12 3.45245 11.9302 3.62811 11.7905 3.77695C11.6507 3.92561 11.4795 4.0102 11.277 4.0307C9.21551 4.2127 7.48726 5.06178 6.09226 6.57795C4.69743 8.09395 4.00001 9.90128 4.00001 11.9999C4.00001 14.1153 4.69743 15.9268 6.09226 17.4344C7.48726 18.9423 9.21551 19.7872 11.277 19.9692C11.4795 19.9897 11.6507 20.0743 11.7905 20.2229C11.9302 20.3718 12 20.5474 12 20.7499C12 20.9628 11.925 21.1409 11.775 21.2844C11.625 21.4281 11.4455 21.4897 11.2365 21.4692C8.77634 21.2704 6.70518 20.2694 5.02301 18.4662C3.34101 16.663 2.50001 14.5076 2.50001 11.9999C2.50001 9.49228 3.34359 7.33686 5.03076 5.5337ZM10.7605 13.2394C10.4202 12.8989 10.25 12.4858 10.25 11.9999C10.25 11.8974 10.2574 11.7971 10.2723 11.6989C10.2869 11.6009 10.3173 11.507 10.3635 11.4172L8.87301 9.9172C8.73468 9.7787 8.66709 9.6047 8.67026 9.3952C8.67343 9.18553 8.74426 9.01145 8.88276 8.87295C9.02126 8.73461 9.19368 8.66545 9.40001 8.66545C9.60634 8.66545 9.77876 8.73461 9.91726 8.87295L11.4173 10.3634C11.4904 10.3339 11.6847 10.2961 12 10.2499C12.4858 10.2499 12.899 10.4201 13.2395 10.7604C13.5798 11.1009 13.75 11.5141 13.75 11.9999C13.75 12.4858 13.5798 12.8989 13.2395 13.2394C12.899 13.5798 12.4858 13.7499 12 13.7499C11.5142 13.7499 11.101 13.5798 10.7605 13.2394Z" fill="var(--fill-0, #1C1B1F)"/>
</g>
</g>
</svg>
