<svg preserveAspectRatio="none" width="100%" height="100%" overflow="visible" style="display: block;" viewBox="0 0 20 20" fill="none" xmlns="http://www.w3.org/2000/svg">
<g id="barcode_scanner">
<mask id="mask0_0_152" style="mask-type:alpha" maskUnits="userSpaceOnUse" x="0" y="0" width="20" height="20">
<rect id="Bounding box" width="20" height="20" fill="var(--fill-0, #D9D9D9)"/>
</mask>
<g mask="url(#mask0_0_152)">
<path id="barcode_scanner_2" d="M4.76107 17.2604C4.60135 17.4201 4.40343 17.5 4.16732 17.5H1.66732C1.43121 17.5 1.23329 17.4201 1.07357 17.2604C0.913845 17.1007 0.833984 16.9028 0.833984 16.6667V14.1667C0.833984 13.9306 0.913845 13.7326 1.07357 13.5729C1.23329 13.4132 1.43121 13.3333 1.66732 13.3333C1.90343 13.3333 2.10135 13.4132 2.26107 13.5729C2.42079 13.7326 2.50065 13.9306 2.50065 14.1667V15.8333H4.16732C4.40343 15.8333 4.60135 15.9132 4.76107 16.0729C4.92079 16.2326 5.00065 16.4306 5.00065 16.6667C5.00065 16.9028 4.92079 17.1007 4.76107 17.2604ZM18.9277 13.5729C19.0875 13.7326 19.1673 13.9306 19.1673 14.1667V16.6667C19.1673 16.9028 19.0875 17.1007 18.9277 17.2604C18.768 17.4201 18.5701 17.5 18.334 17.5H15.834C15.5979 17.5 15.4 17.4201 15.2402 17.2604C15.0805 17.1007 15.0007 16.9028 15.0007 16.6667C15.0007 16.4306 15.0805 16.2326 15.2402 16.0729C15.4 15.9132 15.5979 15.8333 15.834 15.8333H17.5007V14.1667C17.5007 13.9306 17.5805 13.7326 17.7402 13.5729C17.9 13.4132 18.0979 13.3333 18.334 13.3333C18.5701 13.3333 18.768 13.4132 18.9277 13.5729ZM3.75065 15C3.63954 15 3.54232 14.9583 3.45898 14.875C3.37565 14.7917 3.33398 14.6944 3.33398 14.5833V5.41667C3.33398 5.30556 3.37565 5.20833 3.45898 5.125C3.54232 5.04167 3.63954 5 3.75065 5H4.58398C4.6951 5 4.79232 5.04167 4.87565 5.125C4.95898 5.20833 5.00065 5.30556 5.00065 5.41667V14.5833C5.00065 14.6944 4.95898 14.7917 4.87565 14.875C4.79232 14.9583 4.6951 15 4.58398 15H3.75065ZM5.95899 14.875C5.87565 14.7917 5.83398 14.6944 5.83398 14.5833V5.41667C5.83398 5.30556 5.87565 5.20833 5.95899 5.125C6.04232 5.04167 6.13954 5 6.25065 5C6.36176 5 6.45898 5.04167 6.54232 5.125C6.62565 5.20833 6.66732 5.30556 6.66732 5.41667V14.5833C6.66732 14.6944 6.62565 14.7917 6.54232 14.875C6.45898 14.9583 6.36176 15 6.25065 15C6.13954 15 6.04232 14.9583 5.95899 14.875ZM8.75065 15C8.63954 15 8.54232 14.9583 8.45899 14.875C8.37565 14.7917 8.33399 14.6944 8.33399 14.5833V5.41667C8.33399 5.30556 8.37565 5.20833 8.45899 5.125C8.54232 5.04167 8.63954 5 8.75065 5H9.58399C9.6951 5 9.79232 5.04167 9.87565 5.125C9.95899 5.20833 10.0007 5.30556 10.0007 5.41667V14.5833C10.0007 14.6944 9.95899 14.7917 9.87565 14.875C9.79232 14.9583 9.6951 15 9.58399 15H8.75065ZM11.2507 15C11.1395 15 11.0423 14.9583 10.959 14.875C10.8757 14.7917 10.834 14.6944 10.834 14.5833V5.41667C10.834 5.30556 10.8757 5.20833 10.959 5.125C11.0423 5.04167 11.1395 5 11.2507 5H12.9173C13.0284 5 13.1257 5.04167 13.209 5.125C13.2923 5.20833 13.334 5.30556 13.334 5.41667V14.5833C13.334 14.6944 13.2923 14.7917 13.209 14.875C13.1257 14.9583 13.0284 15 12.9173 15H11.2507ZM14.2923 14.875C14.209 14.7917 14.1673 14.6944 14.1673 14.5833V5.41667C14.1673 5.30556 14.209 5.20833 14.2923 5.125C14.3757 5.04167 14.4729 5 14.584 5C14.6951 5 14.7923 5.04167 14.8757 5.125C14.959 5.20833 15.0007 5.30556 15.0007 5.41667V14.5833C15.0007 14.6944 14.959 14.7917 14.8757 14.875C14.7923 14.9583 14.6951 15 14.584 15C14.4729 15 14.3757 14.9583 14.2923 14.875ZM15.959 14.875C15.8757 14.7917 15.834 14.6944 15.834 14.5833V5.41667C15.834 5.30556 15.8757 5.20833 15.959 5.125C16.0423 5.04167 16.1395 5 16.2507 5C16.3618 5 16.459 5.04167 16.5423 5.125C16.6257 5.20833 16.6673 5.30556 16.6673 5.41667V14.5833C16.6673 14.6944 16.6257 14.7917 16.5423 14.875C16.459 14.9583 16.3618 15 16.2507 15C16.1395 15 16.0423 14.9583 15.959 14.875ZM4.76107 3.92708C4.60135 4.08681 4.40343 4.16667 4.16732 4.16667H2.50065V5.83333C2.50065 6.06944 2.42079 6.26736 2.26107 6.42708C2.10135 6.58681 1.90343 6.66667 1.66732 6.66667C1.43121 6.66667 1.23329 6.58681 1.07357 6.42708C0.913845 6.26736 0.833984 6.06944 0.833984 5.83333V3.33333C0.833984 3.09722 0.913845 2.89931 1.07357 2.73958C1.23329 2.57986 1.43121 2.5 1.66732 2.5H4.16732C4.40343 2.5 4.60135 2.57986 4.76107 2.73958C4.92079 2.89931 5.00065 3.09722 5.00065 3.33333C5.00065 3.56944 4.92079 3.76736 4.76107 3.92708ZM15.2402 2.73958C15.4 2.57986 15.5979 2.5 15.834 2.5H18.334C18.5701 2.5 18.768 2.57986 18.9277 2.73958C19.0875 2.89931 19.1673 3.09722 19.1673 3.33333V5.83333C19.1673 6.06944 19.0875 6.26736 18.9277 6.42708C18.768 6.58681 18.5701 6.66667 18.334 6.66667C18.0979 6.66667 17.9 6.58681 17.7402 6.42708C17.5805 6.26736 17.5007 6.06944 17.5007 5.83333V4.16667H15.834C15.5979 4.16667 15.4 4.08681 15.2402 3.92708C15.0805 3.76736 15.0007 3.56944 15.0007 3.33333C15.0007 3.09722 15.0805 2.89931 15.2402 2.73958Z" fill="var(--fill-0, #1C1B1F)"/>
</g>
</g>
</svg>
