<svg preserveAspectRatio="none" width="100%" height="100%" overflow="visible" style="display: block;" viewBox="0 0 20 20" fill="none" xmlns="http://www.w3.org/2000/svg">
<g id="book_5">
<mask id="mask0_0_4" style="mask-type:alpha" maskUnits="userSpaceOnUse" x="0" y="0" width="20" height="20">
<rect id="Bounding box" width="20" height="20" fill="var(--fill-0, #D9D9D9)"/>
</mask>
<g mask="url(#mask0_0_4)">
<path id="book_5_2" d="M5.72125 17.9167C5.18167 17.9167 4.71826 17.7356 4.33104 17.3733C3.94368 17.0113 3.75 16.5631 3.75 16.0288V4.65229C3.75 4.17257 3.90521 3.74708 4.21563 3.37583C4.5259 3.00458 4.9209 2.76875 5.40063 2.66833L11.3702 1.45521C11.836 1.35479 12.253 1.45389 12.621 1.7525C12.9891 2.05111 13.1731 2.44021 13.1731 2.91979V12.609C13.1731 12.969 13.0601 13.2878 12.8342 13.5656C12.6082 13.8434 12.3222 14.017 11.976 14.0865L5.53375 15.431C5.38736 15.4642 5.26181 15.5356 5.15708 15.645C5.05236 15.7546 5 15.8825 5 16.0288C5 16.2136 5.07188 16.3662 5.21563 16.4865C5.35924 16.6066 5.52778 16.6667 5.72125 16.6667H14.7435C14.8184 16.6667 14.8799 16.6426 14.9279 16.5946C14.976 16.5465 15 16.4851 15 16.4102V4.375C15 4.19764 15.0599 4.04917 15.1796 3.92958C15.2992 3.80986 15.4476 3.75 15.625 3.75C15.8024 3.75 15.9508 3.80986 16.0704 3.92958C16.1901 4.04917 16.25 4.19764 16.25 4.375V16.4102C16.25 16.8258 16.1028 17.1808 15.8085 17.4752C15.5141 17.7695 15.1591 17.9167 14.7435 17.9167H5.72125ZM7.24354 13.8158L11.7227 12.891C11.7815 12.8803 11.8296 12.851 11.8671 12.8029C11.9044 12.7549 11.9231 12.7015 11.9231 12.6427V2.94063C11.9231 2.86063 11.891 2.79389 11.8269 2.74042C11.7628 2.68694 11.6908 2.66826 11.6106 2.68437L7.24354 3.57687V13.8158ZM5.99354 14.069V3.83021L5.65708 3.90062C5.46694 3.9391 5.30986 4.02646 5.18583 4.16271C5.06194 4.29896 5 4.46215 5 4.65229V14.3575C5.08542 14.3136 5.17306 14.2759 5.26292 14.2444C5.35264 14.2128 5.44292 14.1875 5.53375 14.1683L5.99354 14.069Z" fill="var(--fill-0, #1C1B1F)"/>
</g>
</g>
</svg>
