<svg preserveAspectRatio="none" width="100%" height="100%" overflow="visible" style="display: block;" viewBox="0 0 24 24" fill="none" xmlns="http://www.w3.org/2000/svg">
<g id="cottage">
<mask id="mask0_0_155" style="mask-type:alpha" maskUnits="userSpaceOnUse" x="0" y="0" width="24" height="24">
<rect id="Bounding box" width="24" height="24" fill="var(--fill-0, #D9D9D9)"/>
</mask>
<g mask="url(#mask0_0_155)">
<path id="cottage_2" d="M4.5 18.6922V11.2402L3.23075 12.227C3.05508 12.3552 2.86917 12.4057 2.673 12.3787C2.477 12.3519 2.31483 12.2507 2.1865 12.075C2.05833 11.8993 2.00608 11.7134 2.02975 11.5172C2.05358 11.3211 2.14817 11.1589 2.3135 11.0307L4.5 9.35L5.19999 8.81334L5.71827 8.416L5.90196 8.27516L5.40959 8.65264C5.40959 8.65264 4.86958 9.06665 4.5 9.35L6 8.2L10.9 4.4635C11.2347 4.21217 11.6029 4.0865 12.0048 4.0865C12.4068 4.0865 12.7718 4.21217 13.1 4.4635L21.6865 11.0307C21.8518 11.1589 21.9464 11.3211 21.9702 11.5172C21.9939 11.7134 21.9417 11.8993 21.8135 12.075C21.6852 12.2403 21.523 12.3365 21.327 12.3635C21.1308 12.3903 20.95 12.3397 20.7845 12.2115L19.5 11.2402V18.6922C19.5 19.1909 19.3234 19.6169 18.9702 19.9702C18.6169 20.3234 18.1909 20.5 17.6922 20.5H6.30775C5.80908 20.5 5.38308 20.3234 5.02975 19.9702C4.67658 19.6169 4.5 19.1909 4.5 18.6922ZM6.30775 19H10.8078V15.8078C10.8078 15.4731 10.9227 15.1907 11.1527 14.9605C11.3829 14.7303 11.6653 14.6152 12 14.6152C12.3347 14.6152 12.6171 14.7303 12.8473 14.9605C13.0773 15.1907 13.1923 15.4731 13.1923 15.8078V19H17.6922C17.7821 19 17.8558 18.9712 17.9135 18.9135C17.9712 18.8558 18 18.7821 18 18.6922V10.1L12.1828 5.66925C12.1314 5.62442 12.0705 5.602 12 5.602C11.9295 5.602 11.8686 5.62442 11.8173 5.66925L6 10.1V18.6922C6 18.7821 6.02883 18.8558 6.0865 18.9135C6.14417 18.9712 6.21792 19 6.30775 19ZM6.30775 19H18H6H6.30775Z" fill="var(--fill-0, #222222)"/>
</g>
</g>
</svg>
