<svg preserveAspectRatio="none" width="100%" height="100%" overflow="visible" style="display: block;" viewBox="0 0 600.332 131.5" fill="none" xmlns="http://www.w3.org/2000/svg">
<g id="Layer_2">
<path id="Vector" d="M600.144 60.2949C503.934 35.3562 427.788 26.2545 391.16 30.0574C365.074 32.7664 344.721 42.084 344.721 42.084C329.374 49.0796 315.376 59.0372 303.582 71.168C291.847 83.2317 282.279 97.4686 275.77 113.06C273.765 117.868 272.018 122.846 271.444 128.026C271.333 129.009 271.407 130.259 272.313 130.646C273.095 130.988 273.957 130.423 274.621 129.879C282.471 123.486 289.488 116.111 296.425 108.714C321.192 82.3014 345.318 55.2864 368.767 27.6834C369.614 26.6787 370.513 25.287 369.85 24.1558C369.408 23.3967 368.457 23.1511 367.609 22.965C355.174 20.3007 342.716 17.7481 330.266 15.1433C316.268 12.2111 302.248 9.36818 288.176 6.8304C275.483 4.53821 262.709 2.35765 249.853 1.24877C245.482 0.869219 241.044 0.56409 236.666 0.884103C234.58 1.03295 231.41 1.15946 229.892 2.88605C228.786 4.13633 230.909 5.58011 231.757 6.16804C235.479 8.75048 239.976 10.3654 244.14 12.0474C252.905 15.5824 261.78 18.8197 270.529 22.3845C278.306 25.5549 286.282 28.3234 293.285 33.1087C295.828 34.8502 298.784 37.6187 297.987 41.0346C297.243 44.2273 294.095 47.1149 291.803 49.2136C283.422 56.9013 273.655 61.9099 263.158 65.9584C248.976 71.4136 234.064 74.8444 219.122 77.3598C219.122 77.3598 195.468 81.2074 173.487 81.8624C140.95 82.8373 78.9278 77.144 0.143593 61.7759" stroke="url(#paint0_linear_0_4)" stroke-width="1.5" stroke-miterlimit="10"/>
</g>
<defs>
<linearGradient id="paint0_linear_0_4" x1="0.143593" y1="65.75" x2="600.144" y2="65.75" gradientUnits="userSpaceOnUse">
<stop stop-color="#BDC2FC"/>
<stop offset="0.301465" stop-color="#F0001C"/>
</linearGradient>
</defs>
</svg>
