<svg preserveAspectRatio="none" width="100%" height="100%" overflow="visible" style="display: block;" viewBox="0 0 600.009 130.131" fill="none" xmlns="http://www.w3.org/2000/svg">
<g id="Layer_3">
<path id="Vector" d="M599.934 68.9775C594.948 68.4786 513.493 60.6133 472.319 71.3148C462.867 73.7702 454.123 76.8756 454.123 76.8756C444.535 80.4275 433.878 85.811 408.285 99.4932C374.526 117.548 355.61 128.098 331.545 129.287C320.124 129.851 308.896 127.941 298.904 121.756C294.103 118.789 289.774 114.994 286.092 110.589C274.727 96.9984 269.784 77.6832 270.075 59.8189C270.106 57.7574 270.218 55.6893 270.628 53.6738C270.939 52.144 271.994 50.1482 272.541 52.6693C273.243 55.906 273.721 59.2018 274.429 62.445C275.87 69.0235 277.633 75.5297 279.714 81.9178C282.62 90.8466 285.905 99.8608 291.221 107.536C291.991 108.645 292.842 109.761 294.01 110.365C297.587 112.223 302.183 106.367 304.114 103.78C306.791 100.189 308.703 95.9742 309.871 91.5754C311.939 83.7955 311.97 75.359 310.976 67.3953C309.225 53.3849 304.418 39.5912 297.63 27.4584C292.867 18.9366 288.178 10.3558 283.483 1.76831C283.229 1.30217 282.887 0.776946 282.378 0.750685C282.074 0.737554 281.794 0.908253 281.54 1.07895C277.062 3.98082 272.696 7.10592 268.641 10.6315C246.532 29.8416 241.148 60.9416 255.146 87.4983C262.362 101.187 273.696 112.158 286.502 120.056C279.577 119.248 272.858 114.593 266.579 111.652C260.835 108.954 255.047 106.347 249.209 103.885C242.036 100.859 234.789 98.0291 227.467 95.4489C219.064 92.488 210.562 89.8487 201.973 87.5771C159.998 76.4751 108.72 71.1441 108.72 71.1441C80.5315 68.3538 43.6672 66.3514 0.0338203 68.321" stroke="url(#paint0_linear_0_4)" stroke-width="1.5" stroke-miterlimit="10"/>
</g>
<defs>
<linearGradient id="paint0_linear_0_4" x1="0.0338203" y1="65.0653" x2="599.934" y2="65.0653" gradientUnits="userSpaceOnUse">
<stop offset="0.55" stop-color="#BDC2FC"/>
<stop offset="1" stop-color="#F0001C"/>
</linearGradient>
</defs>
</svg>
