<svg preserveAspectRatio="none" width="100%" height="100%" overflow="visible" style="display: block;" viewBox="0 0 634.689 130.084" fill="none" xmlns="http://www.w3.org/2000/svg">
<g id="Layer_3">
<path id="Vector" d="M634.624 68.9568C629.349 68.4576 543.184 60.5874 499.629 71.2955C489.63 73.7525 480.38 76.8599 480.38 76.8599C470.237 80.4139 458.964 85.8009 431.891 99.4916C396.18 117.558 376.169 128.115 350.713 129.304C338.631 129.869 326.754 127.957 316.184 121.769C311.105 118.799 306.527 115.002 302.631 110.594C290.609 96.9952 285.38 77.6679 285.688 59.7925C285.721 57.7297 285.839 55.6603 286.273 53.6435C286.601 52.1128 287.718 50.1157 288.296 52.6383C289.039 55.8771 289.545 59.1749 290.293 62.4202C291.818 69.0028 293.683 75.5131 295.884 81.9052C298.959 90.8396 302.434 99.8595 308.057 107.539C308.872 108.649 309.772 109.766 311.007 110.371C314.791 112.23 319.652 106.37 321.695 103.781C324.527 100.188 326.55 95.9704 327.785 91.5689C329.973 83.7841 330.006 75.3423 328.955 67.3736C327.102 53.3544 322.017 39.552 314.837 27.4117C309.798 18.8846 304.838 10.2983 299.872 1.70546C299.602 1.23903 299.241 0.713473 298.702 0.687196C298.38 0.674057 298.085 0.844862 297.815 1.01567C293.079 3.91936 288.461 7.04642 284.171 10.5742C260.784 29.7964 255.088 60.9158 269.895 87.4892C277.529 101.187 289.518 112.164 303.064 120.067C295.74 119.259 288.631 114.601 281.99 111.658C275.913 108.958 269.79 106.35 263.615 103.887C256.027 100.858 248.361 98.0266 240.615 95.4448C231.727 92.482 222.733 89.8411 213.648 87.5681C169.245 76.4591 115.001 71.1247 115.001 71.1247C85.1824 68.3327 46.1862 66.3291 0.0292862 68.2999" stroke="var(--stroke-0, #BDC2FC)" stroke-width="1.37301" stroke-miterlimit="10"/>
</g>
</svg>
