<svg preserveAspectRatio="none" width="100%" height="100%" overflow="visible" style="display: block;" viewBox="0 0 20 20" fill="none" xmlns="http://www.w3.org/2000/svg">
<g id="location_disabled">
<mask id="mask0_0_4" style="mask-type:alpha" maskUnits="userSpaceOnUse" x="0" y="0" width="20" height="20">
<rect id="Bounding box" width="20" height="20" fill="var(--fill-0, #D9D9D9)"/>
</mask>
<g mask="url(#mask0_0_4)">
<path id="location_disabled_2" d="M18.3204 10.4871C18.2008 10.6068 18.0524 10.6667 17.875 10.6667H17.0577C17.0106 11.0813 16.9401 11.4717 16.846 11.8381C16.752 12.2047 16.6222 12.5636 16.4567 12.915C16.3894 13.07 16.2727 13.1742 16.1065 13.2275C15.9403 13.281 15.7841 13.2682 15.6377 13.1892C15.4915 13.11 15.3929 12.9895 15.3421 12.8277C15.2914 12.6659 15.297 12.5033 15.359 12.3398C15.5022 11.9883 15.617 11.6143 15.7035 11.2179C15.7901 10.8215 15.8333 10.4294 15.8333 10.0417C15.8333 8.43056 15.2639 7.05556 14.125 5.91667C12.9861 4.77778 11.6111 4.20833 10 4.20833C9.60681 4.20833 9.21604 4.2516 8.82771 4.33812C8.43938 4.42465 8.06944 4.53951 7.71792 4.68271C7.55444 4.74465 7.39049 4.7516 7.22604 4.70354C7.06146 4.65549 6.93694 4.55826 6.8525 4.41188C6.76819 4.26549 6.75139 4.10924 6.80208 3.94313C6.85278 3.77701 6.95563 3.66028 7.11063 3.59292C7.46743 3.42208 7.82903 3.28965 8.19542 3.19563C8.56194 3.1016 8.95514 3.03104 9.375 2.98396V2.16667C9.375 1.98931 9.43486 1.84083 9.55458 1.72125C9.67417 1.60153 9.82264 1.54167 10 1.54167C10.1774 1.54167 10.3258 1.60153 10.4454 1.72125C10.5651 1.84083 10.625 1.98931 10.625 2.16667V2.98396C12.3611 3.16243 13.8226 3.84514 15.0096 5.03208C16.1965 6.21903 16.8792 7.68056 17.0577 9.41667H17.875C18.0524 9.41667 18.2008 9.47653 18.3204 9.59625C18.4401 9.71583 18.5 9.86431 18.5 10.0417C18.5 10.219 18.4401 10.3675 18.3204 10.4871ZM9.375 17.9167V17.0994C7.63889 16.9209 6.17736 16.2382 4.99042 15.0513C3.80347 13.8643 3.12076 12.4028 2.94229 10.6667H2.125C1.94764 10.6667 1.79917 10.6068 1.67958 10.4871C1.55986 10.3675 1.5 10.219 1.5 10.0417C1.5 9.86431 1.55986 9.71583 1.67958 9.59625C1.79917 9.47653 1.94764 9.41667 2.125 9.41667H2.94229C3.01174 8.76931 3.15438 8.15847 3.37021 7.58417C3.58604 7.00986 3.86118 6.47965 4.19563 5.99354L2.24687 4.04479C2.13146 3.92951 2.07243 3.78451 2.06979 3.60979C2.06715 3.43507 2.12618 3.28736 2.24687 3.16667C2.36757 3.04597 2.51389 2.98562 2.68583 2.98562C2.85792 2.98562 3.00431 3.04597 3.125 3.16667L16.8542 16.8958C16.9835 17.0251 17.0481 17.175 17.0481 17.3454C17.0481 17.5157 16.9835 17.6655 16.8542 17.7948C16.7249 17.9102 16.575 17.9714 16.4046 17.9783C16.2342 17.9853 16.0844 17.9241 15.9552 17.7948L14.0481 15.846C13.562 16.1805 13.0318 16.4556 12.4575 16.6715C11.8832 16.8873 11.2724 17.0299 10.625 17.0994V17.9167C10.625 18.094 10.5651 18.2425 10.4454 18.3621C10.3258 18.4818 10.1774 18.5417 10 18.5417C9.82264 18.5417 9.67417 18.4818 9.55458 18.3621C9.43486 18.2425 9.375 18.094 9.375 17.9167ZM10 15.875C10.5642 15.875 11.1251 15.7879 11.6827 15.6138C12.2403 15.4396 12.7275 15.2158 13.1442 14.9423L5.09938 6.8975C4.8259 7.31417 4.60208 7.79729 4.42792 8.34688C4.25375 8.8966 4.16667 9.46153 4.16667 10.0417C4.16667 11.6528 4.73611 13.0278 5.875 14.1667C7.01389 15.3056 8.38889 15.875 10 15.875Z" fill="var(--fill-0, #1C1B1F)"/>
</g>
</g>
</svg>
