<svg preserveAspectRatio="none" width="100%" height="100%" overflow="visible" style="display: block;" viewBox="0 0 24 24" fill="none" xmlns="http://www.w3.org/2000/svg">
<g id="menu">
<mask id="mask0_0_148" style="mask-type:alpha" maskUnits="userSpaceOnUse" x="0" y="0" width="24" height="24">
<rect id="Bounding box" width="24" height="24" fill="var(--fill-0, #D9D9D9)"/>
</mask>
<g mask="url(#mask0_0_148)">
<path id="menu_2" d="M4.25 17.6345C4.0375 17.6345 3.85942 17.5626 3.71575 17.4188C3.57192 17.2751 3.5 17.0969 3.5 16.8843C3.5 16.6718 3.57192 16.4937 3.71575 16.35C3.85942 16.2065 4.0375 16.1348 4.25 16.1348H19.75C19.9625 16.1348 20.1406 16.2066 20.2843 16.3503C20.4281 16.4941 20.5 16.6723 20.5 16.885C20.5 17.0975 20.4281 17.2756 20.2843 17.4193C20.1406 17.5628 19.9625 17.6345 19.75 17.6345H4.25ZM4.25 12.75C4.0375 12.75 3.85942 12.6781 3.71575 12.5343C3.57192 12.3904 3.5 12.2123 3.5 11.9998C3.5 11.7871 3.57192 11.609 3.71575 11.4655C3.85942 11.3218 4.0375 11.25 4.25 11.25H19.75C19.9625 11.25 20.1406 11.3219 20.2843 11.4658C20.4281 11.6096 20.5 11.7878 20.5 12.0003C20.5 12.2129 20.4281 12.391 20.2843 12.5345C20.1406 12.6782 19.9625 12.75 19.75 12.75H4.25ZM4.25 7.86525C4.0375 7.86525 3.85942 7.79342 3.71575 7.64975C3.57192 7.50592 3.5 7.32767 3.5 7.115C3.5 6.9025 3.57192 6.72442 3.71575 6.58075C3.85942 6.43725 4.0375 6.3655 4.25 6.3655H19.75C19.9625 6.3655 20.1406 6.43742 20.2843 6.58125C20.4281 6.72492 20.5 6.90308 20.5 7.11575C20.5 7.32825 20.4281 7.50633 20.2843 7.65C20.1406 7.7935 19.9625 7.86525 19.75 7.86525H4.25Z" fill="var(--fill-0, #1C1B1F)"/>
</g>
</g>
</svg>
