<svg preserveAspectRatio="none" width="100%" height="100%" overflow="visible" style="display: block;" viewBox="0 0 20 20" fill="none" xmlns="http://www.w3.org/2000/svg">
<g id="outbound">
<mask id="mask0_0_4" style="mask-type:alpha" maskUnits="userSpaceOnUse" x="0" y="0" width="20" height="20">
<rect id="Bounding box" width="20" height="20" fill="var(--fill-0, #D9D9D9)"/>
</mask>
<g mask="url(#mask0_0_4)">
<path id="outbound_2" d="M11.875 8.99521V10.5417C11.875 10.7187 11.9349 10.8672 12.0548 10.9869C12.1747 11.1067 12.3231 11.1667 12.5002 11.1667C12.6774 11.1667 12.8258 11.1067 12.9454 10.9869C13.0651 10.8672 13.125 10.7187 13.125 10.5417V7.62813C13.125 7.41479 13.0528 7.2359 12.9085 7.09146C12.7641 6.94715 12.5852 6.875 12.3719 6.875H9.45833C9.28125 6.875 9.13285 6.93493 9.01312 7.05479C8.89326 7.17465 8.83333 7.32312 8.83333 7.50021C8.83333 7.67743 8.89326 7.82583 9.01312 7.94542C9.13285 8.06514 9.28125 8.125 9.45833 8.125H10.984L6.9775 12.1315C6.86222 12.2455 6.80458 12.3881 6.80458 12.5592C6.80458 12.7301 6.86222 12.8776 6.9775 13.0017C7.10153 13.1308 7.25007 13.1941 7.42312 13.1915C7.59618 13.1888 7.74465 13.1256 7.86854 13.0017L11.875 8.99521ZM10.0015 17.9167C8.90646 17.9167 7.87722 17.7089 6.91375 17.2933C5.95028 16.8778 5.11222 16.3138 4.39958 15.6015C3.68694 14.8891 3.12271 14.0514 2.70687 13.0883C2.29118 12.1253 2.08333 11.0963 2.08333 10.0015C2.08333 8.90646 2.29111 7.87722 2.70667 6.91375C3.12222 5.95028 3.68618 5.11222 4.39854 4.39958C5.1109 3.68694 5.94861 3.12271 6.91167 2.70687C7.87472 2.29118 8.90368 2.08333 9.99854 2.08333C11.0935 2.08333 12.1228 2.29111 13.0863 2.70667C14.0497 3.12222 14.8878 3.68618 15.6004 4.39854C16.3131 5.1109 16.8773 5.94861 17.2931 6.91167C17.7088 7.87472 17.9167 8.90368 17.9167 9.99854C17.9167 11.0935 17.7089 12.1228 17.2933 13.0863C16.8778 14.0497 16.3138 14.8878 15.6015 15.6004C14.8891 16.3131 14.0514 16.8773 13.0883 17.2931C12.1253 17.7088 11.0963 17.9167 10.0015 17.9167ZM10 16.6667C11.8611 16.6667 13.4375 16.0208 14.7292 14.7292C16.0208 13.4375 16.6667 11.8611 16.6667 10C16.6667 8.13889 16.0208 6.5625 14.7292 5.27083C13.4375 3.97917 11.8611 3.33333 10 3.33333C8.13889 3.33333 6.5625 3.97917 5.27083 5.27083C3.97917 6.5625 3.33333 8.13889 3.33333 10C3.33333 11.8611 3.97917 13.4375 5.27083 14.7292C6.5625 16.0208 8.13889 16.6667 10 16.6667Z" fill="var(--fill-0, #1C1B1F)"/>
</g>
</g>
</svg>
