<svg preserveAspectRatio="none" width="100%" height="100%" overflow="visible" style="display: block;" viewBox="0 0 20 20" fill="none" xmlns="http://www.w3.org/2000/svg">
<g id="package_2">
<mask id="mask0_0_4" style="mask-type:alpha" maskUnits="userSpaceOnUse" x="0" y="0" width="20" height="20">
<rect id="Bounding box" width="20" height="20" fill="var(--fill-0, #D9D9D9)"/>
</mask>
<g mask="url(#mask0_0_4)">
<path id="package_2_2" d="M9.375 16.3077V10.359L4.16667 7.34292V13.1475C4.16667 13.1901 4.17736 13.2302 4.19875 13.2677C4.22014 13.3051 4.25215 13.3371 4.29479 13.3638L9.375 16.3077ZM10.625 16.3077L15.7052 13.3638C15.7478 13.3371 15.7799 13.3051 15.8013 13.2677C15.8226 13.2302 15.8333 13.1901 15.8333 13.1475V7.34292L10.625 10.359V16.3077ZM9.24688 17.6715L3.67 14.4615C3.43278 14.3248 3.24792 14.1422 3.11542 13.9135C2.98292 13.6848 2.91667 13.4337 2.91667 13.1602V6.83979C2.91667 6.56632 2.98292 6.31521 3.11542 6.08646C3.24792 5.85785 3.43278 5.67521 3.67 5.53854L9.24688 2.32854C9.48396 2.19174 9.735 2.12333 10 2.12333C10.265 2.12333 10.516 2.19174 10.7531 2.32854L16.33 5.53854C16.5672 5.67521 16.7521 5.85785 16.8846 6.08646C17.0171 6.31521 17.0833 6.56632 17.0833 6.83979V13.1602C17.0833 13.4337 17.0171 13.6848 16.8846 13.9135C16.7521 14.1422 16.5672 14.3248 16.33 14.4615L10.7531 17.6715C10.516 17.8083 10.265 17.8767 10 17.8767C9.735 17.8767 9.48396 17.8083 9.24688 17.6715ZM13.2131 7.41667L15.1458 6.30771L10.1281 3.40542C10.0855 3.37875 10.0428 3.36542 10 3.36542C9.95722 3.36542 9.91451 3.37875 9.87188 3.40542L8.0625 4.44708L13.2131 7.41667ZM10 9.28208L11.9375 8.16021L6.79167 5.18583L4.85417 6.30771L10 9.28208Z" fill="var(--fill-0, #1C1B1F)"/>
</g>
</g>
</svg>
