<svg preserveAspectRatio="none" width="100%" height="100%" overflow="visible" style="display: block;" viewBox="0 0 24 24" fill="none" xmlns="http://www.w3.org/2000/svg">
<g id="Icon">
<mask id="mask0_0_172" style="mask-type:alpha" maskUnits="userSpaceOnUse" x="0" y="0" width="24" height="24">
<rect id="Bounding box" width="24" height="24" fill="var(--fill-0, #F7F7F7)"/>
</mask>
<g mask="url(#mask0_0_172)">
<path id="account_circle" d="M6.0231 17.2923C6.8731 16.6616 7.79906 16.1635 8.80098 15.7981C9.80289 15.4327 10.8692 15.25 12 15.25C13.1308 15.25 14.1971 15.4327 15.199 15.7981C16.2009 16.1635 17.1269 16.6616 17.9769 17.2923C18.5987 16.609 19.0913 15.818 19.4548 14.9193C19.8183 14.0205 20 13.0474 20 12C20 9.78333 19.2208 7.89583 17.6625 6.3375C16.1042 4.77917 14.2167 4 12 4C9.78333 4 7.89583 4.77917 6.3375 6.3375C4.77917 7.89583 4 9.78333 4 12C4 13.0474 4.18173 14.0205 4.5452 14.9193C4.90867 15.818 5.4013 16.609 6.0231 17.2923ZM12.0003 12.75C11.0873 12.75 10.3173 12.4366 9.6904 11.8099C9.06348 11.1832 8.75003 10.4133 8.75003 9.5003C8.75003 8.58728 9.06338 7.81732 9.6901 7.1904C10.3168 6.56348 11.0867 6.25002 11.9997 6.25002C12.9127 6.25002 13.6827 6.56338 14.3096 7.1901C14.9365 7.81683 15.25 8.5867 15.25 9.4997C15.25 10.4127 14.9366 11.1827 14.3099 11.8096C13.6832 12.4365 12.9133 12.75 12.0003 12.75ZM12 21.5C10.6808 21.5 9.44328 21.2519 8.28753 20.7557C7.13176 20.2596 6.12631 19.5839 5.27118 18.7288C4.41606 17.8737 3.74042 16.8682 3.24427 15.7125C2.74811 14.5567 2.50002 13.3192 2.50002 12C2.50002 10.6808 2.74811 9.44327 3.24427 8.28752C3.74042 7.13176 4.41606 6.12631 5.27118 5.27117C6.12631 4.41606 7.13176 3.74042 8.28753 3.24427C9.44328 2.74811 10.6808 2.50002 12 2.50002C13.3192 2.50002 14.5567 2.74811 15.7125 3.24427C16.8682 3.74042 17.8737 4.41606 18.7288 5.27117C19.5839 6.12631 20.2596 7.13176 20.7557 8.28752C21.2519 9.44327 21.5 10.6808 21.5 12C21.5 13.3192 21.2519 14.5567 20.7557 15.7125C20.2596 16.8682 19.5839 17.8737 18.7288 18.7288C17.8737 19.5839 16.8682 20.2596 15.7125 20.7557C14.5567 21.2519 13.3192 21.5 12 21.5ZM12 20C12.9026 20 13.7728 19.8548 14.6106 19.5644C15.4484 19.274 16.1923 18.868 16.8423 18.3462C16.1923 17.8436 15.458 17.4519 14.6394 17.1712C13.8208 16.8904 12.941 16.75 12 16.75C11.059 16.75 10.1776 16.8888 9.35575 17.1663C8.53395 17.4439 7.80126 17.8372 7.15768 18.3462C7.80768 18.868 8.55159 19.274 9.38943 19.5644C10.2272 19.8548 11.0974 20 12 20ZM12 11.25C12.4974 11.25 12.9135 11.0827 13.2481 10.7481C13.5827 10.4135 13.75 9.99743 13.75 9.5C13.75 9.00257 13.5827 8.58653 13.2481 8.2519C12.9135 7.91728 12.4974 7.74998 12 7.74998C11.5026 7.74998 11.0865 7.91728 10.7519 8.2519C10.4173 8.58653 10.25 9.00257 10.25 9.5C10.25 9.99743 10.4173 10.4135 10.7519 10.7481C11.0865 11.0827 11.5026 11.25 12 11.25Z" fill="var(--fill-0, #919191)"/>
</g>
</g>
</svg>
