<svg preserveAspectRatio="none" width="100%" height="100%" overflow="visible" style="display: block;" viewBox="0 0 24 24" fill="none" xmlns="http://www.w3.org/2000/svg">
<g id="swap_driving_apps_wheel">
<mask id="mask0_0_137" style="mask-type:alpha" maskUnits="userSpaceOnUse" x="0" y="0" width="24" height="24">
<rect id="Bounding box" width="24" height="24" fill="var(--fill-0, #D9D9D9)"/>
</mask>
<g mask="url(#mask0_0_137)">
<path id="swap_driving_apps_wheel_2" d="M8.31375 20.7525C7.15892 20.2542 6.15042 19.5739 5.28825 18.7117C4.42608 17.8496 3.74583 16.8411 3.2475 15.6863C2.74917 14.5313 2.5 13.2996 2.5 11.9912C2.5 10.6827 2.74967 9.45358 3.249 8.30375C3.74833 7.15375 4.42817 6.14867 5.2885 5.2885C6.14867 4.42817 7.157 3.74833 8.3135 3.249C9.47 2.74967 10.7017 2.5 12.0087 2.5C13.3157 2.5 14.5446 2.74967 15.6953 3.249C16.8459 3.74833 17.8513 4.42817 18.7115 5.2885C19.5718 6.14867 20.2517 7.15375 20.751 8.30375C21.2503 9.45358 21.5 10.6827 21.5 11.9912C21.5 13.2996 21.2503 14.5317 20.751 15.6875C20.2517 16.8433 19.5718 17.8513 18.7115 18.7115C17.8513 19.5718 16.8462 20.2517 15.6962 20.751C14.5464 21.2503 13.3172 21.5 12.0087 21.5C10.7004 21.5 9.46875 21.2508 8.31375 20.7525ZM14.824 16.6635C15.7452 16.9392 16.6064 17.3423 17.4077 17.873C18.2384 17.1128 18.8782 16.2257 19.327 15.2115C19.7757 14.1973 20 13.1268 20 12C20 9.76667 19.225 7.875 17.675 6.325C16.125 4.775 14.2333 4 12 4C9.76667 4 7.875 4.775 6.325 6.325C4.775 7.875 4 9.76667 4 12C4 13.1282 4.22183 14.2016 4.6655 15.2202C5.109 16.2387 5.75125 17.123 6.59225 17.873C7.39358 17.3423 8.25483 16.9392 9.176 16.6635C10.0972 16.3878 11.0385 16.25 12 16.25C12.9615 16.25 13.9028 16.3878 14.824 16.6635ZM9.8845 18.0288C9.19617 18.2148 8.54108 18.4873 7.91925 18.8463C8.52825 19.2244 9.17883 19.5113 9.871 19.7068C10.5632 19.9023 11.2731 20 12.0008 20C12.7284 20 13.4381 19.9023 14.1298 19.7068C14.8214 19.5113 15.4717 19.2244 16.0807 18.8463C15.4589 18.4873 14.8042 18.2148 14.1167 18.0288C13.4292 17.8429 12.7242 17.75 12.0015 17.75C11.2787 17.75 10.573 17.8429 9.8845 18.0288ZM7 10.9038C7.25133 10.9038 7.46483 10.816 7.6405 10.6405C7.816 10.4648 7.90375 10.2513 7.90375 10C7.90375 9.74867 7.816 9.53517 7.6405 9.3595C7.46483 9.184 7.25133 9.09625 7 9.09625C6.74867 9.09625 6.53517 9.184 6.3595 9.3595C6.184 9.53517 6.09625 9.74867 6.09625 10C6.09625 10.2513 6.184 10.4648 6.3595 10.6405C6.53517 10.816 6.74867 10.9038 7 10.9038ZM10.6405 7.6405C10.816 7.46483 10.9038 7.25133 10.9038 7C10.9038 6.74867 10.816 6.53517 10.6405 6.3595C10.4648 6.184 10.2513 6.09625 10 6.09625C9.74867 6.09625 9.53517 6.184 9.3595 6.3595C9.184 6.53517 9.09625 6.74867 9.09625 7C9.09625 7.25133 9.184 7.46483 9.3595 7.6405C9.53517 7.816 9.74867 7.90375 10 7.90375C10.2513 7.90375 10.4648 7.816 10.6405 7.6405ZM17 10.9038C17.2513 10.9038 17.4648 10.816 17.6405 10.6405C17.816 10.4648 17.9038 10.2513 17.9038 10C17.9038 9.74867 17.816 9.53517 17.6405 9.3595C17.4648 9.184 17.2513 9.09625 17 9.09625C16.7487 9.09625 16.5352 9.184 16.3595 9.3595C16.184 9.53517 16.0962 9.74867 16.0962 10C16.0962 10.2513 16.184 10.4648 16.3595 10.6405C16.5352 10.816 16.7487 10.9038 17 10.9038ZM13.2395 13.2395C13.5798 12.899 13.75 12.4858 13.75 12C13.75 11.7833 13.7118 11.5757 13.6355 11.377C13.5593 11.1782 13.4513 10.9987 13.3115 10.8385L14.777 7.15C14.8615 6.95383 14.8624 6.75867 14.7797 6.5645C14.6971 6.37017 14.5572 6.23075 14.36 6.14625C14.1752 6.06158 13.9858 6.05975 13.792 6.14075C13.598 6.22175 13.4635 6.362 13.3885 6.5615L11.9038 10.25C11.4423 10.282 11.0512 10.4647 10.7307 10.798C10.4102 11.1313 10.25 11.532 10.25 12C10.25 12.4858 10.4202 12.899 10.7605 13.2395C11.101 13.5798 11.5142 13.75 12 13.75C12.4858 13.75 12.899 13.5798 13.2395 13.2395Z" fill="var(--fill-0, #1C1B1F)"/>
</g>
</g>
</svg>
