<svg preserveAspectRatio="none" width="100%" height="100%" overflow="visible" style="display: block;" viewBox="0 0 24 24" fill="none" xmlns="http://www.w3.org/2000/svg">
<g id="Icon">
<mask id="mask0_0_161" style="mask-type:alpha" maskUnits="userSpaceOnUse" x="0" y="0" width="24" height="24">
<rect id="Bounding box" width="24" height="24" fill="var(--fill-0, #D9D9D9)"/>
</mask>
<g mask="url(#mask0_0_161)">
<path id="widgets" d="M15.8443 11.848L12.1713 8.175C12.0776 8.0815 12.0115 7.98233 11.973 7.8775C11.9347 7.77283 11.9155 7.66067 11.9155 7.541C11.9155 7.42133 11.9347 7.30958 11.973 7.20575C12.0115 7.10192 12.0776 7.00325 12.1713 6.90975L15.8443 3.2365C15.9378 3.143 16.0369 3.077 16.1417 3.0385C16.2464 3 16.3586 2.98075 16.4783 2.98075C16.5979 2.98075 16.7097 3 16.8135 3.0385C16.9173 3.077 17.016 3.143 17.1095 3.2365L20.7828 6.90975C20.8763 7.00325 20.9423 7.10233 20.9808 7.207C21.0193 7.31167 21.0385 7.42383 21.0385 7.5435C21.0385 7.66317 21.0193 7.77492 20.9808 7.87875C20.9423 7.98275 20.8763 8.0815 20.7828 8.175L17.1095 11.848C17.016 11.9417 16.9169 12.0077 16.8123 12.046C16.7074 12.0845 16.5953 12.1037 16.4758 12.1037C16.3561 12.1037 16.2442 12.0845 16.1402 12.046C16.0364 12.0077 15.9378 11.9417 15.8443 11.848ZM3.80775 9.90375V4.7115C3.80775 4.4555 3.89433 4.24083 4.0675 4.0675C4.24083 3.89433 4.4555 3.80775 4.7115 3.80775H9.90375C10.1599 3.80775 10.3746 3.89433 10.5477 4.0675C10.7211 4.24083 10.8077 4.4555 10.8077 4.7115V9.90375C10.8077 10.1599 10.7211 10.3746 10.5477 10.5477C10.3746 10.7211 10.1599 10.8077 9.90375 10.8077H4.7115C4.4555 10.8077 4.24083 10.7211 4.0675 10.5477C3.89433 10.3746 3.80775 10.1599 3.80775 9.90375ZM13.1923 19.2885V14.0962C13.1923 13.8401 13.2789 13.6254 13.4523 13.4522C13.6254 13.2789 13.8401 13.1923 14.0962 13.1923H19.2885C19.5445 13.1923 19.7592 13.2789 19.9325 13.4522C20.1057 13.6254 20.1923 13.8401 20.1923 14.0962V19.2885C20.1923 19.5445 20.1057 19.7592 19.9325 19.9325C19.7592 20.1057 19.5445 20.1922 19.2885 20.1922H14.0962C13.8401 20.1922 13.6254 20.1057 13.4523 19.9325C13.2789 19.7592 13.1923 19.5445 13.1923 19.2885ZM3.80775 19.2885V14.0962C3.80775 13.8401 3.89433 13.6254 4.0675 13.4522C4.24083 13.2789 4.4555 13.1923 4.7115 13.1923H9.90375C10.1599 13.1923 10.3746 13.2789 10.5477 13.4522C10.7211 13.6254 10.8077 13.8401 10.8077 14.0962V19.2885C10.8077 19.5445 10.7211 19.7592 10.5477 19.9325C10.3746 20.1057 10.1599 20.1922 9.90375 20.1922H4.7115C4.4555 20.1922 4.24083 20.1057 4.0675 19.9325C3.89433 19.7592 3.80775 19.5445 3.80775 19.2885ZM5.30775 9.30775H9.30775V5.30775H5.30775V9.30775ZM16.502 10.3922L19.327 7.56725L16.502 4.74225L13.677 7.56725L16.502 10.3922ZM14.6923 18.6923H18.6923V14.6923H14.6923V18.6923ZM5.30775 18.6923H9.30775V14.6923H5.30775V18.6923Z" fill="var(--fill-0, #919191)"/>
</g>
</g>
</svg>
